<svg xmlns="http://www.w3.org/2000/svg" xml:space="preserve" width="693.701" height="693.701" viewBox="0 0 693.701 693.701"><defs><clipPath id="Logo_BH7_Short_Black-1_LAST_rect_svg__a" clipPathUnits="userSpaceOnUse"><path d="M-495.454 418.631H99.822v-841.89h-595.276z"/></clipPath><clipPath id="Logo_BH7_Short_Black-1_LAST_rect_svg__b" clipPathUnits="userSpaceOnUse"><path d="M-491.124 418.631h595.276v-841.89h-595.276z"/></clipPath><clipPath id="Logo_BH7_Short_Black-1_LAST_rect_svg__c" clipPathUnits="userSpaceOnUse"><path d="M-371.237 374.641h595.276v-841.89h-595.276z"/></clipPath><clipPath id="Logo_BH7_Short_Black-1_LAST_rect_svg__d" clipPathUnits="userSpaceOnUse"><path d="M-346.303 402.327h595.276v-841.89h-595.276z"/></clipPath><clipPath id="Logo_BH7_Short_Black-1_LAST_rect_svg__e" clipPathUnits="userSpaceOnUse"><path d="M-325.653 484.085h595.276v-841.89h-595.276z"/></clipPath><clipPath id="Logo_BH7_Short_Black-1_LAST_rect_svg__f" clipPathUnits="userSpaceOnUse"><path d="M-293.316 510.926H301.96v-841.89h-595.276z"/></clipPath><clipPath id="Logo_BH7_Short_Black-1_LAST_rect_svg__g" clipPathUnits="userSpaceOnUse"><path d="M-470.022 402.269h595.276v-841.89h-595.276z"/></clipPath><clipPath id="Logo_BH7_Short_Black-1_LAST_rect_svg__h" clipPathUnits="userSpaceOnUse"><path d="M-362.376 292.26H232.9v-841.89h-595.276z"/></clipPath><clipPath id="Logo_BH7_Short_Black-1_LAST_rect_svg__i" clipPathUnits="userSpaceOnUse"><path d="M-461.388 425.534h595.276v-841.89h-595.276z"/></clipPath><clipPath id="Logo_BH7_Short_Black-1_LAST_rect_svg__j" clipPathUnits="userSpaceOnUse"><path d="M-350.06 349.33h595.276v-841.89H-350.06Z"/></clipPath><clipPath id="Logo_BH7_Short_Black-1_LAST_rect_svg__k" clipPathUnits="userSpaceOnUse"><path d="M-443.222 456.756h595.276v-841.89h-595.276z"/></clipPath><clipPath id="Logo_BH7_Short_Black-1_LAST_rect_svg__l" clipPathUnits="userSpaceOnUse"><path d="M-368.07 533.998h595.277v-841.89H-368.07Z"/></clipPath><clipPath id="Logo_BH7_Short_Black-1_LAST_rect_svg__m" clipPathUnits="userSpaceOnUse"><path d="M-314.701 530.761h595.276v-841.89h-595.276z"/></clipPath><clipPath id="Logo_BH7_Short_Black-1_LAST_rect_svg__n" clipPathUnits="userSpaceOnUse"><path d="M-310.992 337.549h595.276v-841.89h-595.276z"/></clipPath><clipPath id="Logo_BH7_Short_Black-1_LAST_rect_svg__o" clipPathUnits="userSpaceOnUse"><path d="M-314.727 507.283H280.55v-841.89h-595.276z"/></clipPath><clipPath id="Logo_BH7_Short_Black-1_LAST_rect_svg__p" clipPathUnits="userSpaceOnUse"><path d="M-374.85 484.246h595.275v-841.89H-374.85Z"/></clipPath><clipPath id="Logo_BH7_Short_Black-1_LAST_rect_svg__q" clipPathUnits="userSpaceOnUse"><path d="M-297.511 331.317h595.276v-841.89h-595.276z"/></clipPath><clipPath id="Logo_BH7_Short_Black-1_LAST_rect_svg__r" clipPathUnits="userSpaceOnUse"><path d="M-331.21 384.456h595.275v-841.89H-331.21Z"/></clipPath><clipPath id="Logo_BH7_Short_Black-1_LAST_rect_svg__s" clipPathUnits="userSpaceOnUse"><path d="M-290.601 348.946h595.276v-841.89h-595.276z"/></clipPath><clipPath id="Logo_BH7_Short_Black-1_LAST_rect_svg__t" clipPathUnits="userSpaceOnUse"><path d="M-211.453 379.54h595.276v-841.89h-595.276Z"/></clipPath><clipPath id="Logo_BH7_Short_Black-1_LAST_rect_svg__u" clipPathUnits="userSpaceOnUse"><path d="M-235.01 432.146h595.276v-841.89H-235.01Z"/></clipPath><clipPath id="Logo_BH7_Short_Black-1_LAST_rect_svg__v" clipPathUnits="userSpaceOnUse"><path d="M-290.748 313.3h595.276v-841.89h-595.276Z"/></clipPath><clipPath id="Logo_BH7_Short_Black-1_LAST_rect_svg__w" clipPathUnits="userSpaceOnUse"><path d="M-248.06 520.74h595.277v-841.89H-248.06Z"/></clipPath><clipPath id="Logo_BH7_Short_Black-1_LAST_rect_svg__x" clipPathUnits="userSpaceOnUse"><path d="M-288.028 486.287h595.276v-841.89h-595.276z"/></clipPath><clipPath id="Logo_BH7_Short_Black-1_LAST_rect_svg__y" clipPathUnits="userSpaceOnUse"><path d="M-123.18 413.675h595.276v-841.89H-123.18Z"/></clipPath><clipPath id="Logo_BH7_Short_Black-1_LAST_rect_svg__z" clipPathUnits="userSpaceOnUse"><path d="M-215.838 302.168h595.276v-841.89h-595.276z"/></clipPath><clipPath id="Logo_BH7_Short_Black-1_LAST_rect_svg__A" clipPathUnits="userSpaceOnUse"><path d="M-126.6 432.864h595.277v-841.89H-126.6Z"/></clipPath><clipPath id="Logo_BH7_Short_Black-1_LAST_rect_svg__B" clipPathUnits="userSpaceOnUse"><path d="M-253.233 323.68h595.276v-841.89h-595.276Z"/></clipPath><clipPath id="Logo_BH7_Short_Black-1_LAST_rect_svg__C" clipPathUnits="userSpaceOnUse"><path d="M-173.635 488.02h595.276v-841.89h-595.276Z"/></clipPath><clipPath id="Logo_BH7_Short_Black-1_LAST_rect_svg__D" clipPathUnits="userSpaceOnUse"><path d="M-214.43 531.197h595.276v-841.89H-214.43Z"/></clipPath><clipPath id="Logo_BH7_Short_Black-1_LAST_rect_svg__E" clipPathUnits="userSpaceOnUse"><path d="M-265.334 550.099h595.276v-841.89h-595.276z"/></clipPath><clipPath id="Logo_BH7_Short_Black-1_LAST_rect_svg__F" clipPathUnits="userSpaceOnUse"><path d="M-276.718 345.42h595.276v-841.89h-595.276Z"/></clipPath><clipPath id="Logo_BH7_Short_Black-1_LAST_rect_svg__G" clipPathUnits="userSpaceOnUse"><path d="M-271.856 483.564H323.42v-841.89h-595.276z"/></clipPath><clipPath id="Logo_BH7_Short_Black-1_LAST_rect_svg__H" clipPathUnits="userSpaceOnUse"><path d="M-216.542 495.051h595.276v-841.89h-595.276z"/></clipPath><clipPath id="Logo_BH7_Short_Black-1_LAST_rect_svg__I" clipPathUnits="userSpaceOnUse"><path d="M-285.162 341.717h595.276v-841.89h-595.276z"/></clipPath><clipPath id="Logo_BH7_Short_Black-1_LAST_rect_svg__J" clipPathUnits="userSpaceOnUse"><path d="M-290.997 444.44h595.276v-841.89h-595.276Z"/></clipPath><clipPath id="Logo_BH7_Short_Black-1_LAST_rect_svg__K" clipPathUnits="userSpaceOnUse"><path d="M-290.747 450.95h595.276v-841.89h-595.276Z"/></clipPath><clipPath id="Logo_BH7_Short_Black-1_LAST_rect_svg__L" clipPathUnits="userSpaceOnUse"><path d="M-290.747 458.877h595.276v-841.89h-595.276z"/></clipPath><clipPath id="Logo_BH7_Short_Black-1_LAST_rect_svg__M" clipPathUnits="userSpaceOnUse"><path d="M-260.68 381.824h595.276v-841.89H-260.68Z"/></clipPath><clipPath id="Logo_BH7_Short_Black-1_LAST_rect_svg__N" clipPathUnits="userSpaceOnUse"><path d="M-331.432 384.495h595.276v-841.89h-595.276z"/></clipPath><clipPath id="Logo_BH7_Short_Black-1_LAST_rect_svg__O" clipPathUnits="userSpaceOnUse"><path d="M-331.432 384.495h595.276v-841.89h-595.276z"/></clipPath><clipPath id="Logo_BH7_Short_Black-1_LAST_rect_svg__P" clipPathUnits="userSpaceOnUse"><path d="M-291.218 444.48h595.276v-841.89h-595.276Z"/></clipPath><clipPath id="Logo_BH7_Short_Black-1_LAST_rect_svg__Q" clipPathUnits="userSpaceOnUse"><path d="M-290.968 450.99h595.276V-390.9h-595.276z"/></clipPath><clipPath id="Logo_BH7_Short_Black-1_LAST_rect_svg__R" clipPathUnits="userSpaceOnUse"><path d="M-290.968 458.916h595.276v-841.89h-595.276z"/></clipPath><clipPath id="Logo_BH7_Short_Black-1_LAST_rect_svg__S" clipPathUnits="userSpaceOnUse"><path d="M-260.9 381.862h595.275v-841.89H-260.9Z"/></clipPath><clipPath id="Logo_BH7_Short_Black-1_LAST_rect_svg__T" clipPathUnits="userSpaceOnUse"><path d="M-260.9 381.862h595.275v-841.89H-260.9Z"/></clipPath></defs><path d="M0 0c0-125.242-91.65-226.771-204.707-226.771S-409.413-125.242-409.413 0c0 125.243 91.65 226.772 204.706 226.772C-91.65 226.772 0 125.243 0 0" clip-path="url(#Logo_BH7_Short_Black-1_LAST_rect_svg__a)" style="fill:#000;fill-opacity:1;fill-rule:nonzero;stroke:#fff;stroke-width:1;stroke-linecap:butt;stroke-linejoin:miter;stroke-miterlimit:10;stroke-dasharray:none;stroke-opacity:1" transform="matrix(1.33333 0 0 -1.33333 618.605 348.175)"/><path d="M0 0c0-122.503-89.646-221.811-200.229-221.811S-400.457-122.503-400.457 0s89.645 221.811 200.228 221.811S0 122.503 0 0" clip-path="url(#Logo_BH7_Short_Black-1_LAST_rect_svg__b)" style="fill:#fff;fill-opacity:1;fill-rule:nonzero;stroke:#000;stroke-width:1.417;stroke-linecap:butt;stroke-linejoin:miter;stroke-miterlimit:10;stroke-dasharray:none;stroke-opacity:1" transform="matrix(1.33333 0 0 -1.33333 612.832 348.175)"/><path d="M0 0c-.073 5.034-2.431 9.291-4.694 13.57-.41.775-1.152 1.523-2.096 1.212-3.554-1.171-7.3-2.424-8.971-6.065-3.088-6.729-4.918-13.849-4.894-21.316.068-21.873-.599-43.755.879-65.611.652-9.652 1.149-19.315 1.793-28.968.188-2.812 1.462-5.312 2.775-7.759.285-.531.626-1.135 1.369-.941.573.149.669.731.769 1.246.511 2.627 1.482 5.161 1.568 7.873.23 7.26 5.939 10.507 12.115 8.92 2.277-.584 2.489.222 2.32 2.11C1.914-84.377.792-73.031.019-61.661c-.94 13.799-2.909 27.468-4.717 41.16-.743 5.628-.906 11.042 3.357 15.602C-.109-3.581.074-1.783 0 0" clip-path="url(#Logo_BH7_Short_Black-1_LAST_rect_svg__c)" style="fill:#000;fill-opacity:1;fill-rule:nonzero;stroke:none" transform="matrix(1.33333 0 0 -1.33333 452.983 289.521)"/><path d="m0 0-.466-.035-8.769-34.932c-2.02-8.043-4.161-16.058-6.024-24.137-1.388-6.024-3.228-11.997-1.709-18.389 1.217-5.115 1.991-10.342 2.959-15.518 2.32-12.404 5.222-24.674 7.903-36.995.668-3.074 1.933-5.926 3.473-8.629 2.441-4.281 7.044-6.611 10.99-5.76 4.837 1.042 8.427 5.124 8.96 10.187.337 3.197-1.743 7.172-4.444 8.494-2.719 1.331-4.998.488-5.998-2.387-.593-1.706-.871-3.52-1.35-5.269-.245-.895-.4-2.012-1.609-2.089-1.258-.082-1.745.939-2.178 1.906-1.259 2.814-.945 5.554.398 8.25.806 1.619 1.795 3.143 2.195 4.96 1.71 7.76 3.432 15.519 5.233 23.26.414 1.774.137 3.141-1.13 4.49-3.581 3.812-5.341 8.561-5.769 13.613C1.281-62.624.364-46.231.036-29.819-.162-19.883 0-9.94 0 0" clip-path="url(#Logo_BH7_Short_Black-1_LAST_rect_svg__d)" style="fill:#000;fill-opacity:1;fill-rule:nonzero;stroke:none" transform="matrix(1.33333 0 0 -1.33333 419.737 326.436)"/><path d="M0 0c-.471-1.466-.804-2.34-1.031-3.24-2.073-8.202-4.114-16.412-6.195-24.613-.833-3.284-1.402-6.508-.692-9.96 1.147-5.572 2.385-11.133 2.953-16.817.655-6.56.876-12.986-3.657-18.505-.248-.301-.571-.677-.011-1.335 10.092 1.097 20.138 3.033 29.858 6.515.631.226 1.598.24 1.751.913.219.965-.879 1.139-1.484 1.512-4.57 2.824-7.737 6.595-9.501 11.824-1.886 5.595-3.053 11.345-4.354 17.051C4.914-24.716 2.614-12.68 0 0" clip-path="url(#Logo_BH7_Short_Black-1_LAST_rect_svg__e)" style="fill:#000;fill-opacity:1;fill-rule:nonzero;stroke:none" transform="matrix(1.33333 0 0 -1.33333 392.204 435.447)"/><path d="M0 0c0-8.473-.015-16.945.008-25.417.008-2.785.344-2.998 2.749-1.618 2.84 1.629 5.795 2.076 8.615.363 2.103-1.278 2.919-.682 3.443 1.388 1.251 4.934 2.506 9.869 3.799 14.793.629 2.394.634 4.743.081 7.169a2711 2711 0 0 0-5.898 26.558c-1.147 5.274-1.648 5.665-7.19 5.114-.688-.069-1.381-.077-2.072-.094-3.24-.082-3.523-.338-3.53-3.617C-.013 16.426-.001 8.213 0 0" clip-path="url(#Logo_BH7_Short_Black-1_LAST_rect_svg__f)" style="fill:#000;fill-opacity:1;fill-rule:nonzero;stroke:none" transform="matrix(1.33333 0 0 -1.33333 349.088 471.235)"/><path d="M0 0c-1.037.342-1.556-.058-2.079-.289-9.801-4.312-19.743-8.294-29.855-11.784-16.489-5.689-33.213-10.594-50.457-13.511-3.318-.562-6.655-1.019-9.965-1.62-1.127-.205-2.612-.294-2.51-2.02.137-2.324.422-4.638.605-6.96.131-1.643.936-2.016 2.44-1.534 2.793.897 5.592 1.787 8.425 2.542 14.345 3.822 28.973 6.498 43.232 10.664 10.091 2.949 19.737 6.912 28.311 13.106C-7.453-8.229-3.436-4.593 0 0" clip-path="url(#Logo_BH7_Short_Black-1_LAST_rect_svg__g)" style="fill:#000;fill-opacity:1;fill-rule:nonzero;stroke:none" transform="matrix(1.33333 0 0 -1.33333 584.695 326.359)"/><path d="M0 0c-.342-.174-.471-.199-.483-.253-.46-1.828-1.003-3.641-1.345-5.491-2.339-12.641-4.995-25.247-4.305-38.234.162-3.056.681-5.986 2.085-8.738 1.545-3.028 4.435-4.431 7.713-3.672 3.146.728 6.039 2.024 8.776 3.736 5.875 3.677 11.349 7.904 16.428 12.58 3.371 3.104 6.261 6.732 9.18 9.922-5.181-.194-10.417-2.168-15.463-4.591-4.899-2.351-9.614-5.08-14.456-7.551-2.454-1.253-3.222-.755-3.627 1.896-.394 2.575-.347 5.164-.413 7.754-.194 7.582.596 15.202-.955 22.733C2.432-6.491 2.022-2.993 0 0" clip-path="url(#Logo_BH7_Short_Black-1_LAST_rect_svg__h)" style="fill:#000;fill-opacity:1;fill-rule:nonzero;stroke:none" transform="matrix(1.33333 0 0 -1.33333 441.168 179.68)"/><path d="M0 0c-8.961-5.131-17.331-9.747-26.058-13.683-14.207-6.405-28.802-11.688-43.935-15.462-3.94-.982-7.856-2.06-11.787-3.077-1.061-.274-2.016-.56-1.889-1.986.269-3.01.579-6.02.702-9.036.084-2.059.906-2.13 2.631-1.615 12.118 3.617 23.755 8.419 35.156 13.861 13.689 6.534 26.746 14.077 38.542 23.669C-4.273-5.406-1.982-3.337 0 0" clip-path="url(#Logo_BH7_Short_Black-1_LAST_rect_svg__i)" style="fill:#000;fill-opacity:1;fill-rule:nonzero;stroke:none" transform="matrix(1.33333 0 0 -1.33333 573.184 357.38)"/><path d="M0 0c.581 3.229-.373 5.716-.575 8.266-.599 7.55-2.145 14.887-5.065 21.871-2.519 6.025-5.77 11.428-12.768 13.284-6.519 1.728-12.181 6.721-11.358 14.271.035.319-.013.711-.457.823-3.517-2.746-5.589-9.241-4.194-13.845 2.286-7.543 6.351-14.075 12.474-19.02C-13.179 18.573-5.447 10.693 0 0" clip-path="url(#Logo_BH7_Short_Black-1_LAST_rect_svg__j)" style="fill:#000;fill-opacity:1;fill-rule:nonzero;stroke:none" transform="matrix(1.33333 0 0 -1.33333 424.746 255.773)"/><path d="M0 0c-.897-.644-1.788-1.297-2.692-1.93-8.009-5.604-16.391-10.552-25.246-14.721-10.799-5.084-21.948-9.256-33.264-12.993-1.926-.635-2.59-1.667-2.417-3.606.228-2.576.385-5.168.384-7.753 0-2.027.708-2.351 2.51-1.66 8.632 3.305 17.176 6.773 25.217 11.398C-21.593-23.26-9.309-13.401 0 0" clip-path="url(#Logo_BH7_Short_Black-1_LAST_rect_svg__k)" style="fill:#000;fill-opacity:1;fill-rule:nonzero;stroke:none" transform="matrix(1.33333 0 0 -1.33333 548.962 399.008)"/><path d="M0 0c.942.197 1.203.998 1.53 1.657 5.372 10.838 6.914 22.334 5.904 34.281-.189 2.228-1.062 2.543-2.747 1.28-3.011-2.261-6.449-2.877-10.068-2.409-1.75.226-2.555-.306-2.926-1.995a1809 1809 0 0 0-4.351-19.191c-.389-1.676-.03-2.5 1.89-2.783 4.776-.706 7.911-3.543 9.618-8.038C-.796 1.867-.817.756 0 0" clip-path="url(#Logo_BH7_Short_Black-1_LAST_rect_svg__l)" style="fill:#000;fill-opacity:1;fill-rule:nonzero;stroke:none" transform="matrix(1.33333 0 0 -1.33333 448.76 501.998)"/><path d="m0 0-.737.101C-1.811-4.135-2.881-8.37-3.958-12.604c-.327-1.287-.717-2.611-2.241-2.881-1.622-.288-2.225.946-2.822 2.152-1.184 2.395-3.165 3.337-5.764 2.932-4.316-.674-6.893-4.798-5.723-9.089 1.213-4.452 6.104-7.887 11.295-7.932 4.775-.041 9.281 3.313 10.526 8.084C3.031-12.75 1.526-6.362 0 0" clip-path="url(#Logo_BH7_Short_Black-1_LAST_rect_svg__m)" style="fill:#000;fill-opacity:1;fill-rule:nonzero;stroke:none" transform="matrix(1.33333 0 0 -1.33333 377.602 497.681)"/><path d="M0 0c-.541 4.193-1.215 9.572-1.946 14.943-.139 1.016-.378 2.127-1.403 2.649-1.777.906-3.824 1.911-5.642.982-1.747-.893-.814-2.981-.588-4.496.881-5.933.96-11.821-.322-17.71-.589-2.701.821-4.324 3.54-4.239C-2.728-7.756.074-4.827 0 0" clip-path="url(#Logo_BH7_Short_Black-1_LAST_rect_svg__n)" style="fill:#000;fill-opacity:1;fill-rule:nonzero;stroke:none" transform="matrix(1.33333 0 0 -1.33333 372.656 240.065)"/><path d="m0 0 .76-.013c.729 10.451 5.808 19.855 7.191 30.715C4.023 28.575.16 27.479-3.796 26.64c-1.493-.317-1.708-1.673-1.438-2.921C-3.524 15.806-1.752 7.905 0 0" clip-path="url(#Logo_BH7_Short_Black-1_LAST_rect_svg__o)" style="fill:#000;fill-opacity:1;fill-rule:nonzero;stroke:none" transform="matrix(1.33333 0 0 -1.33333 377.635 466.377)"/><path d="M0 0c.06 1.544-.135 3.346-.86 5.04-1.186 2.767-3.598 2.856-6.113 2.756-1.819-.072-2.926-.968-3.286-2.71-.871-4.224-1.734-8.45-2.516-12.69-.441-2.382.27-3.137 2.732-3.201C-4.45-10.948.021-6.267 0 0" clip-path="url(#Logo_BH7_Short_Black-1_LAST_rect_svg__p)" style="fill:#000;fill-opacity:1;fill-rule:nonzero;stroke:none" transform="matrix(1.33333 0 0 -1.33333 457.8 435.662)"/><path d="M0 0c.19 3.488-.331 7.156-.919 10.812-.183 1.134-.169 2.731-1.857 2.613-1.738-.121-1.389-1.718-1.395-2.848-.039-6.807-.036-13.614-.009-20.42.004-.888-.391-2.193.777-2.467 1.24-.291 1.672.977 2.079 1.911C.093-7.146.083-3.691 0 0" clip-path="url(#Logo_BH7_Short_Black-1_LAST_rect_svg__q)" style="fill:#000;fill-opacity:1;fill-rule:nonzero;stroke:none" transform="matrix(1.33333 0 0 -1.33333 354.682 231.756)"/><path d="M0 0a13.4 13.4 0 0 1 6.4 1.11c1.75.771 2.285 1.667.855 3.274-1.718 1.93-3.405 3.871-5.471 5.458-3.141 2.413-6.063 2.528-9.224.194-1.532-1.131-2.772-2.561-3.898-4.102-1.067-1.462-.826-2.536.796-3.302C-7.248 1.079-3.88-.192 0 0Zm-2.537 15.637c1.782.064 3.808-.555 5.639-1.823C6.4 11.532 9.079 8.589 11.519 5.47c2.111-2.7 1.449-5.459-1.714-7.086C5.992-3.577 1.866-4.498-2.443-3.865c-4.467.656-8.779 1.836-12.493 4.577-2.472 1.825-2.637 3.082-.92 5.614 1.802 2.66 3.881 5.044 6.416 7.039 1.907 1.501 4.038 2.261 6.903 2.272z" clip-path="url(#Logo_BH7_Short_Black-1_LAST_rect_svg__r)" style="fill:none;stroke:#000;stroke-width:1;stroke-linecap:butt;stroke-linejoin:miter;stroke-miterlimit:10;stroke-dasharray:none;stroke-opacity:1" transform="matrix(1.33333 0 0 -1.33333 399.615 302.608)"/><path d="M0 0c-1.513-.031-3.036.253-4.562.826-1.646.617-3.155.427-4.727-.389-6.819-3.542-15.191 1.418-15.186 9.084.002 4.49.684 8.95 1.309 13.399.084.599.178 1.196.246 1.797.246 2.164-.592 2.64-2.544 1.758-8.878-4.012-16.576-9.498-22.702-17.201-5.018-6.309-8.528-13.374-11.457-20.798-.986-2.502-.421-4.945.187-7.382a23652 23652 0 0 1 9.13-36.44c3.618-14.409 7.256-28.813 10.866-43.223 1.385-5.532 3.169-11.013 3.951-16.632.839-6.036 4.523-8.81 9.637-10.554a62 62 0 0 1 10.55-2.599l30.695-.008a62 62 0 0 1 10.606 2.607c5.114 1.744 8.798 4.518 9.637 10.554.781 5.619 2.566 11.1 3.95 16.632 3.611 14.41 7.248 28.814 10.867 43.223 3.05 12.144 6.098 24.29 9.13 36.44.608 2.437 1.173 4.88.186 7.382C56.841-4.1 53.331 2.965 48.313 9.274c-6.126 7.703-13.824 13.189-22.702 17.201-1.952.882-2.79.406-2.544-1.758.068-.601.161-1.198.245-1.797.625-4.449 1.308-8.909 1.31-13.399.004-7.666-8.367-12.626-15.186-9.084-1.572.816-3.082 1.006-4.728.389C3.182.253 1.66-.031.146 0Z" clip-path="url(#Logo_BH7_Short_Black-1_LAST_rect_svg__s)" style="fill:#000;fill-opacity:1;fill-rule:nonzero;stroke:none" transform="matrix(1.33333 0 0 -1.33333 345.468 255.26)"/><path d="M0 0c4.262-4.56 4.1-9.974 3.357-15.602C1.548-29.294-.42-42.963-1.359-56.762c-.774-11.37-1.896-22.716-2.914-34.068-.17-1.888.043-2.694 2.319-2.11 6.177 1.587 11.886-1.66 12.115-8.92.086-2.712 1.057-5.246 1.568-7.873.1-.516.195-1.097.769-1.246.743-.194 1.084.41 1.369.941 1.314 2.447 2.587 4.947 2.775 7.759.644 9.653 1.141 19.316 1.793 28.968 1.478 21.855.811 43.738.879 65.611.023 7.467-1.806 14.587-4.895 21.316-1.67 3.641-5.416 4.894-8.97 6.065-.944.311-1.686-.437-2.096-1.212C1.09 14.19-1.268 9.933-1.34 4.899-1.416 3.116-1.231 1.318 0 0" clip-path="url(#Logo_BH7_Short_Black-1_LAST_rect_svg__t)" style="fill:#000;fill-opacity:1;fill-rule:nonzero;stroke:none" transform="matrix(1.33333 0 0 -1.33333 239.937 296.053)"/><path d="M0 0c-.328-16.412-1.245-32.805-2.629-49.161-.428-5.052-2.187-9.801-5.768-13.613-1.268-1.349-1.544-2.716-1.131-4.491 1.802-7.74 3.523-15.499 5.234-23.259.4-1.817 1.388-3.341 2.194-4.96 1.344-2.696 1.657-5.436.398-8.25-.432-.967-.92-1.988-2.177-1.907-1.209.078-1.365 1.195-1.61 2.09-.478 1.749-.757 3.563-1.35 5.269-1 2.875-3.279 3.718-5.998 2.386-2.701-1.321-4.781-5.296-4.444-8.493.533-5.063 4.123-9.145 8.96-10.187 3.946-.851 8.55 1.479 10.99 5.76 1.54 2.703 2.806 5.555 3.474 8.628 2.681 12.322 5.583 24.592 7.902 36.996.968 5.175 1.742 10.403 2.959 15.518 1.52 6.392-.32 12.364-1.709 18.389-1.863 8.079-4.004 16.094-6.024 24.137L.502 29.784l-.465.035C.037 19.879.199 9.936 0 0" clip-path="url(#Logo_BH7_Short_Black-1_LAST_rect_svg__u)" style="fill:#000;fill-opacity:1;fill-rule:nonzero;stroke:none" transform="matrix(1.33333 0 0 -1.33333 271.346 366.195)"/><path d="M0 0c-8.772-.001-17.564-1.59-26.499-4.839 1.182 2.215 2.077 3.75 2.837 5.348 2.853 5.996 4.747 12.058 1.695 18.643-1.404 3.028-3.369 5.628-5.442 8.173-1.054 1.294-.989 1.821.796 2.056C-17.742 30.548-8.871 31.283 0 31.32h-.146c8.871-.037 17.741-.772 26.612-1.939 1.786-.235 1.851-.762.796-2.056-2.072-2.545-4.038-5.145-5.441-8.173-3.053-6.585-1.158-12.647 1.694-18.643.761-1.598 1.656-3.133 2.838-5.348C17.418-1.59 8.626-.001-.146 0" clip-path="url(#Logo_BH7_Short_Black-1_LAST_rect_svg__v)" style="fill:#000;fill-opacity:1;fill-rule:nonzero;stroke:none" transform="matrix(1.33333 0 0 -1.33333 345.663 207.732)"/><path d="M0 0c-1.301-5.706-2.469-11.456-4.355-17.051-1.763-5.228-4.93-9-9.5-11.824-.605-.373-1.704-.547-1.484-1.512.152-.673 1.119-.686 1.751-.913 9.72-3.481 19.765-5.418 29.858-6.514.56.658.236 1.034-.011 1.335-4.534 5.518-4.313 11.944-3.657 18.504.568 5.684 1.805 11.246 2.952 16.817.711 3.452.141 6.677-.692 9.961-2.081 8.2-4.121 16.41-6.195 24.612-.227.9-.56 1.774-1.03 3.24C5.022 23.976 2.722 11.939 0 0" clip-path="url(#Logo_BH7_Short_Black-1_LAST_rect_svg__w)" style="fill:#000;fill-opacity:1;fill-rule:nonzero;stroke:none" transform="matrix(1.33333 0 0 -1.33333 288.745 484.32)"/><path d="M0 0c-.007 3.279-.291 3.535-3.53 3.617-.691.018-1.385.026-2.072.094-5.543.552-6.044.16-7.191-5.113a2705 2705 0 0 0-5.897-26.559c-.553-2.426-.548-4.774.081-7.169 1.293-4.924 2.548-9.858 3.798-14.793.525-2.07 1.34-2.666 3.444-1.388 2.819 1.713 5.774 1.266 8.614-.363 2.405-1.38 2.742-1.167 2.75 1.618.022 8.472.008 16.945.008 25.417C.006-16.426.018-8.213 0 0" clip-path="url(#Logo_BH7_Short_Black-1_LAST_rect_svg__x)" style="fill:#000;fill-opacity:1;fill-rule:nonzero;stroke:none" transform="matrix(1.33333 0 0 -1.33333 342.038 438.383)"/><path d="M0 0c8.574-6.193 18.221-10.157 28.312-13.105 14.259-4.166 28.887-6.843 43.231-10.665 2.833-.754 5.633-1.645 8.426-2.542 1.504-.482 2.309-.109 2.439 1.535.184 2.321.468 4.635.606 6.96.102 1.725-1.383 1.814-2.51 2.019-3.31.602-6.647 1.059-9.965 1.62C53.295-11.261 36.571-6.356 20.082-.667 9.97 2.823.027 6.806-9.773 11.118c-.523.23-1.042.63-2.08.288C-8.417 6.813-4.399 3.177 0 0" clip-path="url(#Logo_BH7_Short_Black-1_LAST_rect_svg__y)" style="fill:#000;fill-opacity:1;fill-rule:nonzero;stroke:none" transform="matrix(1.33333 0 0 -1.33333 122.24 341.567)"/><path d="M0 0c-1.551-7.531-.76-15.151-.955-22.733-.066-2.59-.02-5.179-.413-7.755-.405-2.65-1.173-3.148-3.627-1.896-4.842 2.472-9.558 5.2-14.456 7.552-5.046 2.423-10.282 4.397-15.463 4.59 2.919-3.189 5.809-6.817 9.18-9.922 5.079-4.675 10.553-8.902 16.428-12.579 2.737-1.713 5.63-3.008 8.776-3.736 3.278-.76 6.168.644 7.713 3.671 1.404 2.752 1.922 5.683 2.085 8.739.69 12.987-1.966 25.592-4.305 38.234-.342 1.85-.884 3.663-1.344 5.491-.014.053-.142.078-.484.253C1.113 6.916.704 3.417 0 0" clip-path="url(#Logo_BH7_Short_Black-1_LAST_rect_svg__z)" style="fill:#000;fill-opacity:1;fill-rule:nonzero;stroke:none" transform="matrix(1.33333 0 0 -1.33333 245.784 192.891)"/><path d="M0 0c11.795-9.592 24.853-17.135 38.542-23.669C49.943-29.111 61.58-33.913 73.698-37.53c1.725-.515 2.547-.444 2.631 1.615.123 3.017.433 6.026.702 9.036.127 1.426-.828 1.712-1.889 1.986-3.931 1.017-7.847 2.095-11.787 3.078-15.132 3.773-29.729 9.056-43.936 15.461C10.693-2.418 2.323 2.198-6.638 7.329-4.656 3.992-2.365 1.923 0 0" clip-path="url(#Logo_BH7_Short_Black-1_LAST_rect_svg__A)" style="fill:#000;fill-opacity:1;fill-rule:nonzero;stroke:none" transform="matrix(1.33333 0 0 -1.33333 126.799 367.151)"/><path d="M0 0c6.123 4.944 10.187 11.477 12.473 19.02 1.395 4.604-.676 11.098-4.194 13.844-.443-.111-.491-.503-.457-.822.824-7.55-4.839-12.543-11.357-14.271-6.998-1.856-10.25-7.259-12.769-13.284-2.92-6.984-4.466-14.321-5.064-21.871-.202-2.55-1.156-5.037-.575-8.266C-16.497-14.958-8.765-7.078 0 0" clip-path="url(#Logo_BH7_Short_Black-1_LAST_rect_svg__B)" style="fill:#000;fill-opacity:1;fill-rule:nonzero;stroke:none" transform="matrix(1.33333 0 0 -1.33333 295.644 221.573)"/><path d="M0 0c8.041-4.625 16.585-8.094 25.217-11.398 1.803-.691 2.511-.368 2.511 1.66-.001 2.585.155 5.176.384 7.753.172 1.939-.492 2.97-2.417 3.606C14.378 5.357 3.23 9.529-7.569 14.613c-8.855 4.169-17.237 9.117-25.246 14.722-.905.633-1.795 1.286-2.693 1.93C-26.199 17.863-13.915 8.005 0 0" clip-path="url(#Logo_BH7_Short_Black-1_LAST_rect_svg__C)" style="fill:#000;fill-opacity:1;fill-rule:nonzero;stroke:none" transform="matrix(1.33333 0 0 -1.33333 189.513 440.695)"/><path d="M0 0c1.707 4.495 4.841 7.332 9.617 8.038 1.92.283 2.279 1.108 1.891 2.783a1779 1779 0 0 0-4.352 19.192c-.371 1.688-1.176 2.22-2.926 1.994-3.619-.468-7.057.148-10.068 2.409-1.685 1.264-2.558.948-2.746-1.279-1.011-11.948.531-23.444 5.903-34.282.327-.659.588-1.459 1.53-1.657C-.333-2.046-.354-.935 0 0" clip-path="url(#Logo_BH7_Short_Black-1_LAST_rect_svg__D)" style="fill:#000;fill-opacity:1;fill-rule:nonzero;stroke:none" transform="matrix(1.33333 0 0 -1.33333 243.907 498.262)"/><path d="M0 0c1.245-4.771 5.752-8.125 10.526-8.084 5.191.045 10.082 3.48 11.295 7.932 1.17 4.291-1.406 8.415-5.723 9.089-2.599.405-4.579-.538-5.764-2.932-.597-1.206-1.2-2.441-2.822-2.152-1.524.27-1.914 1.594-2.241 2.88-1.077 4.235-2.147 8.47-3.221 12.705l-.737-.1C-.213 12.976-1.718 6.588 0 0" clip-path="url(#Logo_BH7_Short_Black-1_LAST_rect_svg__E)" style="fill:#000;fill-opacity:1;fill-rule:nonzero;stroke:none" transform="matrix(1.33333 0 0 -1.33333 311.78 523.465)"/><path d="M0 0c2.719-.085 4.128 1.537 3.54 4.238-1.283 5.889-1.204 11.778-.322 17.711.225 1.515 1.159 3.602-.588 4.495-1.818.93-3.865-.075-5.643-.982-1.025-.522-1.264-1.632-1.403-2.648-.73-5.371-1.404-10.75-1.945-14.943C-6.436 3.043-3.634.114 0 0" clip-path="url(#Logo_BH7_Short_Black-1_LAST_rect_svg__F)" style="fill:#000;fill-opacity:1;fill-rule:nonzero;stroke:none" transform="matrix(1.33333 0 0 -1.33333 326.958 250.56)"/><path d="M0 0c.27 1.248.055 2.604-1.438 2.921-3.956.84-7.819 1.935-11.747 4.062 1.382-10.86 6.461-20.263 7.191-30.714l.76.012C-3.482-15.813-1.709-7.913 0 0" clip-path="url(#Logo_BH7_Short_Black-1_LAST_rect_svg__G)" style="fill:#000;fill-opacity:1;fill-rule:nonzero;stroke:none" transform="matrix(1.33333 0 0 -1.33333 320.475 434.752)"/><path d="M0 0c2.462.063 3.172.818 2.732 3.2C1.95 7.44 1.087 11.667.216 15.891c-.36 1.742-1.467 2.637-3.286 2.71-2.515.099-4.927.01-6.113-2.756-.726-1.695-.92-3.496-.86-5.04C-10.065 4.538-5.593-.144 0 0" clip-path="url(#Logo_BH7_Short_Black-1_LAST_rect_svg__H)" style="fill:#000;fill-opacity:1;fill-rule:nonzero;stroke:none" transform="matrix(1.33333 0 0 -1.33333 246.722 450.068)"/><path d="M0 0c.406-.933.838-2.201 2.078-1.91 1.169.274.774 1.578.777 2.466.027 6.807.031 13.613-.008 20.42-.007 1.13.342 2.728-1.395 2.849-1.689.117-1.675-1.48-1.857-2.614-.589-3.656-1.11-7.324-.919-10.812C-1.407 6.708-1.417 3.254 0 0" clip-path="url(#Logo_BH7_Short_Black-1_LAST_rect_svg__I)" style="fill:#000;fill-opacity:1;fill-rule:nonzero;stroke:none" transform="matrix(1.33333 0 0 -1.33333 338.216 245.622)"/><path d="M0 0c5.359-.008 10.721.823 16.075 2.438 4.346 1.311 5.894 3.983 5.175 8.495-.707 4.439-1.675 8.826-2.815 13.178-3.82 14.574-4.351 29.298-2.225 44.195.662 4.639 3.336 6.992 7.474 8.223 1.157.344 2.343.595 3.523.859 1.444.324 2.47 1.036 2.084 2.676-.351 1.494-1.521 1.732-2.856 1.448-1.437-.305-2.913-.505-4.295-.973-5.682-1.926-9.559-5.453-10.152-11.794-.152-1.632-.367-3.259-.573-4.886-1.751-13.812-.539-27.407 2.913-40.852 1.095-4.263 2.353-8.496 2.598-12.938.118-2.156-.799-3.341-2.87-3.967-2.674-.809-5.415-1.177-8.157-1.41a79 79 0 0 0-6.295-.301h.146a79 79 0 0 0-6.295.301c-2.741.233-5.482.601-8.156 1.41-2.071.626-2.988 1.811-2.87 3.967.245 4.442 1.503 8.675 2.597 12.938 3.453 13.445 4.665 27.04 2.914 40.852-.206 1.627-.421 3.254-.574 4.886-.593 6.341-4.47 9.868-10.151 11.794-1.383.468-2.858.668-4.295.973-1.335.284-2.505.046-2.857-1.448-.385-1.64.641-2.352 2.084-2.676 1.18-.264 2.367-.515 3.524-.859 4.138-1.231 6.811-3.584 7.474-8.223 2.126-14.897 1.595-29.621-2.225-44.195-1.141-4.352-2.108-8.739-2.816-13.178-.718-4.512.83-7.184 5.175-8.495C-11.366.823-6.004-.008-.646 0Z" clip-path="url(#Logo_BH7_Short_Black-1_LAST_rect_svg__J)" style="fill:none;stroke:#000;stroke-width:1;stroke-linecap:butt;stroke-linejoin:miter;stroke-miterlimit:10;stroke-dasharray:none;stroke-opacity:1" transform="matrix(1.33333 0 0 -1.33333 345.996 382.588)"/><path d="M0 0c-4.288.053-8.576.313-12.866.462-4.814.166-7.013-1.977-7.364-6.676-.154-2.06.601-3.597 2.67-4.154 1.66-.446 3.364-.84 5.071-.976 4.039-.322 8.091-.476 12.422-.714h-.012c4.332.238 8.384.392 12.423.714 1.707.136 3.411.53 5.07.976 2.069.557 2.825 2.094 2.671 4.154-.352 4.699-2.55 6.842-7.364 6.676C8.431.313 4.143.053-.145 0" clip-path="url(#Logo_BH7_Short_Black-1_LAST_rect_svg__K)" style="fill:none;stroke:#000;stroke-width:1;stroke-linecap:butt;stroke-linejoin:miter;stroke-miterlimit:10;stroke-dasharray:none;stroke-opacity:1" transform="matrix(1.33333 0 0 -1.33333 345.663 391.267)"/><path d="M0 0c-4.626.436-9.26.864-13.891 1.312-.797.077-1.642.24-1.55 1.313.077.901.735 1.336 1.588 1.418.599.058 1.213.084 1.809.017 4.005-.455 8.019-.467 12.033-.414h-.123c4.014-.053 8.028-.041 12.033.414.595.067 1.21.041 1.808-.017.854-.082 1.512-.517 1.589-1.418.092-1.073-.753-1.236-1.55-1.313C9.114.864 4.481.436-.146 0" clip-path="url(#Logo_BH7_Short_Black-1_LAST_rect_svg__L)" style="fill:none;stroke:#000;stroke-width:1;stroke-linecap:butt;stroke-linejoin:miter;stroke-miterlimit:10;stroke-dasharray:none;stroke-opacity:1" transform="matrix(1.33333 0 0 -1.33333 345.663 401.836)"/><path d="M0 0c1.623.766 1.864 1.839.796 3.301C-.33 4.842-1.57 6.273-3.102 7.404c-3.161 2.334-6.082 2.219-9.224-.195-2.066-1.586-3.753-3.527-5.471-5.458-1.43-1.606-.895-2.502.855-3.273a13.4 13.4 0 0 1 6.4-1.11C-6.662-2.824-3.293-1.554 0 0Zm-1.101 10.733c2.534-1.995 4.613-4.379 6.416-7.04C7.031 1.162 6.867-.095 4.394-1.92.68-4.661-3.632-5.842-8.098-6.497c-4.31-.633-8.436.288-12.249 2.249-3.163 1.626-3.825 4.385-1.714 7.086 2.44 3.119 5.119 6.061 8.417 8.344 1.831 1.268 3.857 1.886 5.639 1.822 2.865-.01 4.997-.771 6.904-2.271z" clip-path="url(#Logo_BH7_Short_Black-1_LAST_rect_svg__M)" style="fill:none;stroke:#000;stroke-width:1;stroke-linecap:butt;stroke-linejoin:miter;stroke-miterlimit:10;stroke-dasharray:none;stroke-opacity:1" transform="matrix(1.33333 0 0 -1.33333 305.573 299.098)"/><path d="M0 0a13.4 13.4 0 0 1 6.401 1.11c1.75.771 2.285 1.667.855 3.274-1.718 1.93-3.405 3.872-5.471 5.458-3.142 2.414-6.063 2.528-9.224.194-1.533-1.131-2.773-2.561-3.898-4.102-1.068-1.462-.827-2.536.796-3.301C-7.248 1.079-3.88-.191 0 0m-2.537 15.637c1.782.064 3.808-.554 5.64-1.822C6.401 11.532 9.08 8.59 11.519 5.47c2.112-2.7 1.45-5.459-1.713-7.086C5.992-3.577 1.867-4.498-2.443-3.865c-4.466.656-8.778 1.836-12.493 4.577-2.472 1.825-2.636 3.083-.92 5.614 1.802 2.66 3.881 5.045 6.416 7.039 1.907 1.501 4.039 2.261 6.903 2.272" clip-path="url(#Logo_BH7_Short_Black-1_LAST_rect_svg__N)" style="fill:#fff;fill-opacity:1;fill-rule:nonzero;stroke:none" transform="matrix(1.33333 0 0 -1.33333 399.909 302.66)"/><path d="M0 0a13.4 13.4 0 0 1 6.401 1.11c1.75.771 2.285 1.667.855 3.274-1.718 1.93-3.405 3.872-5.471 5.458-3.142 2.414-6.063 2.528-9.224.194-1.533-1.131-2.773-2.561-3.898-4.102-1.068-1.462-.827-2.536.796-3.301C-7.248 1.079-3.88-.191 0 0Zm-2.537 15.637c1.782.064 3.808-.554 5.64-1.822C6.401 11.532 9.08 8.59 11.519 5.47c2.112-2.7 1.45-5.459-1.713-7.086C5.992-3.577 1.867-4.498-2.443-3.865c-4.466.656-8.778 1.836-12.493 4.577-2.472 1.825-2.636 3.083-.92 5.614 1.802 2.66 3.881 5.045 6.416 7.039 1.907 1.501 4.039 2.261 6.903 2.272z" clip-path="url(#Logo_BH7_Short_Black-1_LAST_rect_svg__O)" style="fill:none;stroke:#000;stroke-width:1;stroke-linecap:butt;stroke-linejoin:miter;stroke-miterlimit:10;stroke-dasharray:none;stroke-opacity:1" transform="matrix(1.33333 0 0 -1.33333 399.909 302.66)"/><path d="M0 0c5.359-.008 10.72.823 16.076 2.438 4.344 1.311 5.892 3.983 5.174 8.495-.708 4.44-1.674 8.827-2.815 13.178-3.82 14.574-4.351 29.298-2.226 44.195.663 4.639 3.337 6.992 7.474 8.223 1.158.344 2.345.595 3.525.86 1.443.323 2.469 1.035 2.084 2.675-.352 1.494-1.522 1.732-2.858 1.448-1.436-.305-2.911-.505-4.294-.973-5.682-1.926-9.559-5.453-10.151-11.794-.154-1.632-.368-3.259-.574-4.886-1.751-13.812-.54-27.407 2.914-40.852 1.093-4.262 2.352-8.495 2.596-12.938.119-2.156-.798-3.341-2.87-3.967-2.673-.808-5.415-1.177-8.156-1.41a79 79 0 0 0-6.295-.301h.146a79 79 0 0 0-6.295.301c-2.741.233-5.482.602-8.156 1.41-2.072.626-2.988 1.811-2.87 3.967.245 4.443 1.503 8.676 2.597 12.938 3.453 13.445 4.665 27.04 2.914 40.852-.206 1.627-.421 3.254-.574 4.886-.593 6.341-4.47 9.868-10.151 11.794-1.383.468-2.859.668-4.295.973-1.335.284-2.506.046-2.857-1.448-.385-1.64.641-2.352 2.084-2.675 1.18-.265 2.367-.516 3.524-.86 4.138-1.231 6.811-3.584 7.474-8.223 2.126-14.897 1.595-29.621-2.225-44.195-1.141-4.351-2.108-8.738-2.816-13.178-.718-4.512.83-7.184 5.175-8.495C-11.366.823-6.004-.008-.646 0Z" clip-path="url(#Logo_BH7_Short_Black-1_LAST_rect_svg__P)" style="fill:#fff;fill-opacity:1;fill-rule:nonzero;stroke:#000;stroke-width:1;stroke-linecap:butt;stroke-linejoin:miter;stroke-miterlimit:10;stroke-dasharray:none;stroke-opacity:1" transform="matrix(1.33333 0 0 -1.33333 346.291 382.64)"/><path d="M0 0c-4.288.053-8.576.313-12.867.462-4.813.166-7.012-1.977-7.363-6.676-.154-2.06.601-3.597 2.67-4.153 1.66-.447 3.364-.841 5.071-.977 4.039-.322 8.091-.475 12.422-.714h-.012c4.332.239 8.384.392 12.422.714 1.707.136 3.411.53 5.072.977 2.068.556 2.824 2.093 2.669 4.153-.35 4.699-2.549 6.842-7.363 6.676C8.43.313 4.143.053-.146 0" clip-path="url(#Logo_BH7_Short_Black-1_LAST_rect_svg__Q)" style="fill:#fff;fill-opacity:1;fill-rule:nonzero;stroke:#000;stroke-width:1;stroke-linecap:butt;stroke-linejoin:miter;stroke-miterlimit:10;stroke-dasharray:none;stroke-opacity:1" transform="matrix(1.33333 0 0 -1.33333 345.958 391.32)"/><path d="M0 0c-4.626.436-9.26.864-13.892 1.312-.797.077-1.641.24-1.549 1.313.077.901.735 1.336 1.588 1.418.599.058 1.213.085 1.809.017 4.005-.455 8.019-.467 12.033-.414h-.124c4.015-.053 8.028-.041 12.034.414.595.068 1.21.041 1.809-.017.853-.082 1.511-.517 1.587-1.418.092-1.073-.752-1.236-1.549-1.313C9.115.864 4.481.436-.146 0" clip-path="url(#Logo_BH7_Short_Black-1_LAST_rect_svg__R)" style="fill:#000;fill-opacity:1;fill-rule:nonzero;stroke:#000;stroke-width:1;stroke-linecap:butt;stroke-linejoin:miter;stroke-miterlimit:10;stroke-dasharray:none;stroke-opacity:1" transform="matrix(1.33333 0 0 -1.33333 345.958 401.889)"/><path d="M0 0c1.623.766 1.864 1.839.796 3.301C-.33 4.842-1.57 6.272-3.102 7.403c-3.161 2.334-6.082 2.22-9.225-.194-2.065-1.586-3.752-3.527-5.47-5.458-1.43-1.607-.895-2.503.855-3.273a13.4 13.4 0 0 1 6.4-1.111C-6.662-2.824-3.293-1.554 0 0m-1.102 10.732c2.535-1.994 4.614-4.378 6.417-7.039C7.031 1.162 6.867-.096 4.394-1.92.679-4.662-3.632-5.842-8.098-6.498c-4.31-.632-8.436.288-12.249 2.249-3.163 1.627-3.825 4.386-1.714 7.086 2.44 3.12 5.119 6.062 8.417 8.345 1.831 1.268 3.857 1.886 5.639 1.822 2.865-.011 4.997-.771 6.903-2.272" clip-path="url(#Logo_BH7_Short_Black-1_LAST_rect_svg__S)" style="fill:#fff;fill-opacity:1;fill-rule:nonzero;stroke:none" transform="matrix(1.33333 0 0 -1.33333 305.868 299.15)"/><path d="M0 0c1.623.766 1.864 1.839.796 3.301C-.33 4.842-1.57 6.272-3.102 7.403c-3.161 2.334-6.082 2.22-9.225-.194-2.065-1.586-3.752-3.527-5.47-5.458-1.43-1.607-.895-2.503.855-3.273a13.4 13.4 0 0 1 6.4-1.111C-6.662-2.824-3.293-1.554 0 0Zm-1.102 10.732c2.535-1.994 4.614-4.378 6.417-7.039C7.031 1.162 6.867-.096 4.394-1.92.679-4.662-3.632-5.842-8.098-6.498c-4.31-.632-8.436.288-12.249 2.249-3.163 1.627-3.825 4.386-1.714 7.086 2.44 3.12 5.119 6.062 8.417 8.345 1.831 1.268 3.857 1.886 5.639 1.822 2.865-.011 4.997-.771 6.903-2.272z" clip-path="url(#Logo_BH7_Short_Black-1_LAST_rect_svg__T)" style="fill:none;stroke:#000;stroke-width:1;stroke-linecap:butt;stroke-linejoin:miter;stroke-miterlimit:10;stroke-dasharray:none;stroke-opacity:1" transform="matrix(1.33333 0 0 -1.33333 305.868 299.15)"/></svg>