<?xml version="1.0" standalone="no"?>
<!DOCTYPE svg PUBLIC "-//W3C//DTD SVG 20010904//EN"
 "http://www.w3.org/TR/2001/REC-SVG-20010904/DTD/svg10.dtd">
<svg version="1.0" xmlns="http://www.w3.org/2000/svg"
 width="700.000000pt" height="700.000000pt" viewBox="0 0 700.000000 700.000000"
 preserveAspectRatio="xMidYMid meet">
<metadata>
Created by potrace 1.14, written by Peter Selinger 2001-2017
</metadata>
<g transform="translate(0.000000,700.000000) scale(0.100000,-0.100000)"
fill="#000000" stroke="none">
<path d="M3310 6524 c-196 -18 -407 -58 -569 -110 -918 -290 -1639 -1089
-1895 -2099 -71 -281 -100 -521 -100 -830 0 -249 16 -424 60 -647 208 -1071
939 -1947 1888 -2263 265 -88 502 -126 786 -127 428 -1 799 89 1178 287 257
134 477 300 697 527 498 510 799 1186 866 1937 15 169 6 574 -15 726 -81 571
-286 1079 -607 1506 -445 590 -1059 967 -1744 1070 -125 19 -441 32 -545 23z
m435 -74 c578 -64 1102 -319 1531 -745 342 -339 578 -723 734 -1195 323 -976
169 -2044 -414 -2869 -427 -604 -1055 -999 -1766 -1108 -160 -25 -520 -25
-680 0 -561 87 -1051 337 -1460 747 -479 480 -781 1119 -866 1835 -22 190 -22
552 0 740 74 612 293 1149 654 1602 455 571 1088 925 1782 996 79 8 401 6 485
-3z"/>
<path d="M3220 5308 c-120 -12 -117 -10 -76 -67 85 -116 90 -207 17 -349 -26
-50 -26 -55 -3 -44 32 17 153 43 240 52 107 11 253 -2 361 -33 l78 -23 -35 74
c-61 128 -54 216 25 319 19 25 31 49 26 53 -26 26 -449 38 -633 18z"/>
<path d="M3090 5171 c0 -55 -35 -108 -93 -141 -28 -16 -65 -32 -81 -36 -16 -3
-50 -27 -76 -53 -54 -54 -98 -156 -124 -286 -17 -92 -31 -223 -22 -214 3 3 23
32 44 65 52 79 109 141 206 227 136 119 206 232 206 333 0 50 -18 102 -43 123
-15 12 -17 10 -17 -18z"/>
<path d="M3852 5170 c-44 -71 -42 -136 9 -240 27 -53 61 -93 189 -220 100 -99
171 -178 195 -218 21 -34 40 -61 42 -59 5 6 -26 218 -43 282 -21 86 -69 184
-111 227 -23 24 -62 47 -103 63 -86 33 -129 76 -145 147 l-12 53 -21 -35z"/>
<path d="M2512 5163 c-25 -46 -34 -118 -40 -320 -5 -147 -11 -216 -19 -224
-10 -10 -45 3 -170 64 -144 70 -247 106 -261 92 -10 -10 193 -200 272 -254
171 -117 263 -119 295 -5 21 74 13 261 -18 446 -16 95 -34 184 -39 198 -9 24
-9 24 -20 3z"/>
<path d="M4442 5160 c-5 -14 -22 -95 -37 -180 -21 -116 -28 -190 -29 -295 -1
-157 3 -180 40 -224 20 -24 34 -31 62 -31 51 0 142 45 241 120 93 71 247 223
231 228 -24 8 -163 -44 -277 -104 -122 -64 -147 -73 -158 -54 -3 5 -8 97 -11
202 -6 240 -36 407 -62 338z"/>
<path d="M3414 4829 c-4 -7 -9 -67 -12 -134 -5 -128 7 -195 34 -195 12 0 14
27 12 167 -2 115 -7 168 -15 170 -6 2 -15 -1 -19 -8z"/>
<path d="M3525 4818 c-3 -13 -4 -88 -3 -168 3 -121 5 -145 18 -145 35 0 49
188 24 308 -8 33 -31 36 -39 5z"/>
<path d="M3273 4820 c-25 -10 -29 -20 -42 -123 -17 -123 -14 -162 12 -193 41
-47 116 -32 102 21 -12 48 -16 165 -7 220 13 80 -3 100 -65 75z"/>
<path d="M3639 4828 c-1 -2 -2 -79 -3 -171 -1 -151 1 -170 16 -178 30 -16 84
14 97 53 17 53 -12 257 -40 281 -17 14 -66 24 -70 15z"/>
<path d="M3080 4745 c-91 -49 -170 -114 -235 -192 -66 -80 -165 -274 -165
-322 0 -19 74 -327 164 -685 90 -358 167 -667 170 -686 10 -57 52 -97 131
-128 68 -25 79 -26 314 -30 200 -3 255 -1 310 13 120 29 181 79 195 162 4 21
79 324 167 675 87 350 159 654 159 677 0 90 -115 286 -233 397 -94 88 -233
172 -253 152 -3 -4 -1 -53 6 -108 7 -56 10 -117 7 -136 -9 -51 -42 -90 -93
-110 -44 -17 -49 -17 -95 -1 -40 15 -56 16 -94 6 -34 -9 -56 -9 -91 0 -39 10
-55 9 -96 -5 -62 -20 -110 -9 -152 35 -43 44 -46 84 -24 287 4 40 -16 40 -92
-1z m111 -530 c51 -19 96 -58 115 -101 7 -17 18 -90 25 -162 15 -160 2 -314
-40 -490 -41 -168 -45 -206 -26 -226 27 -27 96 -39 225 -39 129 0 198 12 225
39 19 20 15 58 -26 226 -42 176 -55 330 -40 490 7 72 18 145 25 162 19 43 64
82 115 101 61 21 91 20 91 -5 0 -14 -11 -22 -42 -31 -103 -27 -123 -53 -138
-186 -21 -183 -10 -310 46 -567 37 -170 37 -207 0 -231 -96 -63 -416 -63 -512
0 -38 24 -37 61 1 236 49 220 62 362 47 522 -15 172 -30 197 -139 226 -32 9
-43 17 -43 31 0 25 30 26 91 5z m-115 -101 c20 -16 50 -48 67 -72 39 -53 33
-66 -46 -106 -135 -68 -335 -31 -313 58 6 24 99 121 137 143 39 22 114 11 155
-23z m982 22 c29 -16 120 -104 134 -129 55 -104 -208 -145 -343 -54 -18 12
-35 30 -37 39 -4 22 76 117 118 139 40 22 95 24 128 5z m-338 -1096 c25 -14
44 -73 31 -98 -6 -11 -18 -23 -28 -27 -34 -13 -233 -21 -342 -14 -114 7 -146
17 -156 48 -7 23 11 72 32 89 21 15 434 17 463 2z"/>
<path d="M2945 4098 c-32 -17 -115 -101 -115 -116 0 -24 70 -45 131 -39 66 6
149 40 149 61 0 21 -47 74 -81 91 -33 18 -57 18 -84 3z"/>
<path d="M3944 4091 c-36 -22 -74 -67 -74 -88 0 -20 84 -54 149 -60 61 -6 131
15 131 39 0 16 -85 100 -117 117 -31 16 -53 14 -89 -8z"/>
<path d="M3280 2981 c0 -16 10 -21 58 -27 76 -10 233 -10 305 0 47 6 57 11 57
27 0 18 -9 19 -210 19 -201 0 -210 -1 -210 -19z"/>
<path d="M2466 4255 c-31 -47 -56 -126 -56 -176 0 -39 6 -58 27 -86 39 -50 40
-119 9 -364 -25 -192 -76 -752 -76 -829 l0 -36 61 1 c56 0 63 -2 90 -32 16
-18 30 -43 33 -55 2 -13 9 -50 15 -82 15 -82 26 -90 51 -33 35 78 54 426 54
987 l1 475 -28 82 c-33 99 -62 136 -122 156 -43 15 -44 15 -59 -8z"/>
<path d="M4431 4255 c-45 -21 -55 -32 -76 -77 -58 -127 -60 -148 -59 -593 1
-512 25 -944 56 -1017 31 -74 38 -67 59 57 7 39 19 80 27 93 23 35 68 54 120
50 l47 -3 -2 50 c-5 131 -47 585 -74 805 -18 145 -28 263 -25 289 3 24 20 66
37 93 28 43 31 55 26 98 -5 45 -56 162 -75 174 -5 3 -32 -6 -61 -19z"/>
<path d="M1089 3693 c13 -26 108 -113 163 -151 73 -50 224 -120 330 -152 53
-17 201 -55 330 -85 128 -31 275 -67 326 -82 51 -14 94 -24 96 -22 2 2 6 32
10 66 8 72 22 64 -149 92 -309 53 -712 178 -1078 335 -36 16 -38 16 -28 -1z"/>
<path d="M5820 3678 c-117 -53 -401 -156 -570 -206 -186 -56 -308 -85 -490
-117 l-125 -21 0 -65 c0 -62 1 -64 25 -62 37 2 663 160 755 190 181 59 317
138 419 242 33 33 58 62 55 64 -2 3 -33 -9 -69 -25z"/>
<path d="M2737 3340 c-6 -362 -27 -703 -47 -770 -5 -19 -27 -59 -47 -88 l-37
-54 38 -171 c21 -95 49 -199 63 -231 26 -63 26 -113 -2 -136 -21 -18 -41 2
-50 48 -9 50 -31 82 -56 82 -80 0 -116 -119 -60 -198 12 -17 41 -38 65 -47 75
-29 137 6 185 103 12 23 48 165 80 315 90 416 105 507 98 579 -3 35 -55 259
-115 498 l-109 435 -6 -365z"/>
<path d="M4117 3248 c-59 -238 -110 -452 -113 -474 -11 -76 137 -804 183 -902
32 -68 80 -105 138 -106 56 -1 92 25 124 88 21 42 22 52 12 86 -14 47 -55 82
-90 78 -22 -3 -29 -13 -48 -68 -23 -70 -32 -79 -57 -55 -22 22 -20 87 4 139
21 47 90 338 90 380 0 14 -13 44 -29 67 -43 58 -58 117 -70 264 -11 136 -30
599 -34 813 l-2 123 -108 -433z"/>
<path d="M1260 3318 c115 -107 345 -249 579 -357 208 -96 443 -182 458 -167 5
4 8 42 8 84 l0 77 -155 40 c-302 80 -583 189 -822 321 -64 35 -121 64 -125 64
-4 -1 21 -28 57 -62z"/>
<path d="M5715 3354 c-73 -45 -271 -142 -391 -192 -158 -67 -297 -113 -495
-166 l-164 -44 3 -78 c2 -44 6 -81 8 -83 6 -6 126 32 254 81 140 54 424 193
535 263 118 74 269 189 289 220 20 31 13 30 -39 -1z"/>
<path d="M1471 2928 c12 -18 66 -76 118 -128 102 -102 256 -212 391 -280 92
-46 267 -120 285 -120 19 0 31 139 13 156 -7 7 -83 38 -168 69 -185 68 -439
190 -568 274 -88 58 -92 59 -71 29z"/>
<path d="M5415 2889 c-156 -104 -358 -196 -685 -312 l-35 -13 -3 -83 -3 -84
29 6 c51 10 260 105 355 161 131 77 240 160 329 252 83 86 124 134 111 133 -4
0 -48 -28 -98 -60z"/>
<path d="M2385 2685 c-32 -31 -35 -114 -5 -162 31 -52 113 -82 137 -50 15 18
-23 208 -44 225 -26 19 -62 14 -88 -13z"/>
<path d="M4502 2693 c-14 -13 -25 -46 -37 -110 -22 -116 -18 -127 38 -120 81
11 135 107 107 192 -17 52 -70 70 -108 38z"/>
<path d="M3065 2669 c4 -19 24 -96 46 -172 21 -77 39 -153 39 -170 0 -18 4
-27 8 -22 10 11 72 289 72 320 0 16 -15 25 -73 43 -39 13 -78 26 -86 29 -10 4
-12 -2 -6 -28z"/>
<path d="M3828 2670 c-42 -14 -79 -28 -83 -32 -6 -6 8 -81 52 -272 l15 -69 33
124 c18 68 40 152 49 187 10 34 16 68 14 75 -2 9 -24 5 -80 -13z"/>
<path d="M3313 2624 c-7 -3 -16 -20 -22 -37 -22 -68 -91 -399 -91 -434 0 -38
53 -259 64 -270 3 -4 17 -1 31 5 35 16 84 14 115 -3 14 -8 28 -14 33 -15 4 0
7 166 7 369 0 204 -3 372 -7 374 -13 8 -117 16 -130 11z"/>
<path d="M3574 2623 c-37 -4 -42 -7 -48 -35 -8 -39 -8 -666 0 -695 6 -22 7
-22 36 -7 19 10 44 14 67 10 94 -14 82 -26 120 121 l33 132 -48 223 c-49 225
-63 260 -101 256 -10 -1 -37 -3 -59 -5z"/>
<path d="M3006 2549 c-16 -101 -120 -570 -142 -641 -18 -57 -35 -89 -70 -127
-25 -27 -54 -53 -64 -56 -36 -11 -21 -24 58 -49 112 -35 342 -78 342 -63 0 1
-11 24 -25 51 -21 42 -25 63 -25 135 1 47 8 122 16 166 33 170 31 211 -21 414
-25 102 -50 191 -54 199 -5 10 -10 0 -15 -29z"/>
<path d="M3901 2386 c-28 -113 -51 -220 -51 -238 0 -18 9 -80 21 -138 11 -58
22 -148 22 -200 2 -86 -1 -101 -25 -148 l-27 -52 23 0 c80 0 387 74 392 95 2
6 -16 24 -39 40 -86 63 -115 146 -211 615 -26 123 -48 226 -50 227 -2 2 -26
-89 -55 -201z"/>
<path d="M2346 2378 c-7 -67 5 -199 25 -270 16 -60 60 -168 68 -168 4 0 15 18
25 40 20 46 67 89 107 97 16 3 33 10 38 17 7 9 -9 96 -54 284 -5 19 -12 22
-58 22 -33 0 -67 7 -92 20 -22 11 -42 20 -46 20 -4 0 -10 -28 -13 -62z"/>
<path d="M4560 2419 c-20 -11 -55 -19 -83 -19 -40 0 -49 -3 -56 -22 -16 -45
-62 -270 -58 -282 3 -7 20 -16 37 -19 49 -10 86 -42 106 -92 11 -25 23 -45 27
-45 11 0 44 81 68 165 21 74 36 264 25 309 -7 30 -18 31 -66 5z"/>
<path d="M3785 1909 c-10 -40 -24 -89 -31 -106 -17 -42 -48 -44 -68 -4 -43 83
-174 12 -151 -82 10 -36 62 -85 105 -98 65 -20 142 8 170 62 22 41 30 120 19
192 -18 116 -24 121 -44 36z"/>
<path d="M3151 1913 c-29 -147 -4 -245 73 -282 52 -26 79 -26 133 -1 93 42
112 154 33 195 -43 22 -59 19 -95 -21 -52 -56 -66 -46 -95 69 -13 53 -27 97
-31 97 -3 0 -11 -26 -18 -57z"/>
</g>
</svg>
